# xmcd CD database file
#
# Track frame offsets:
#	150
#	17660
#	34780
#	61950
#	75862
#	92762
#	109045
#	131302
#	141685
#	161477
#
# Disc length: 2391 seconds
#
# Revision: 0
# Processed by: cddbd v1.5.2PL0 Copyright (c) Steve Scherf et al.
# Submitted via: CDex 1.51
#
DISCID=7709550a
DTITLE=Don Ewell - Man Here Plays Fine Piano !
DYEAR=1995
DGENRE=Jazz
TTITLE0=Everybody Loves My Baby
TTITLE1=Blue Turning Grey Over You
TTITLE2=Am I Blue?
TTITLE3=Frisco Rider
TTITLE4=You're Driving Me Crazy
TTITLE5=Green Swamp
TTITLE6=I Want a Little Girl
TTITLE7=My Home I in a Southern Town
TTITLE8=Save It Pretty Mama
TTITLE9=Keeping' Out of Mischief Now
EXTD=YEAR: 1995
EXTT0=
EXTT1=
EXTT2=
EXTT3=
EXTT4=
EXTT5=
EXTT6=
EXTT7=
EXTT8=
EXTT9=
PLAYORDER=
